<?xml version="1.0" encoding="UTF-8"?>
<svg version="1.1" xmlns="http://www.w3.org/2000/svg" width="656" height="865">
<path d="M0 0 C216.48 0 432.96 0 656 0 C656 285.45 656 570.9 656 865 C439.52 865 223.04 865 0 865 C0 579.55 0 294.1 0 0 Z " fill="#FEFEFE" transform="translate(0,0)"/>
<path d="M0 0 C213.39141414 0 213.39141414 0 230.125 3.625 C230.8895752 3.7904834 231.65415039 3.9559668 232.44189453 4.12646484 C260.49748199 10.55435517 286.18488895 22.1485665 308 41 C308.49532227 41.42684082 308.99064453 41.85368164 309.50097656 42.29345703 C316.77592515 48.60996001 323.1730671 55.29975475 329 63 C329.77730469 64.0003125 330.55460937 65.000625 331.35546875 66.03125 C336.63558284 72.99562956 341.04515427 80.34274083 345.25 88 C345.73315674 88.87696533 346.21631348 89.75393066 346.71411133 90.6574707 C349.46867866 95.78427539 351.91247515 100.99630026 354.17871094 106.35546875 C354.45198212 106.99754272 354.7252533 107.6396167 355.00680542 108.30114746 C355.6728524 109.86673122 356.33666065 111.43326709 357 113 C357.06987267 103.95003739 357.1229988 94.90016932 357.15543652 85.84999466 C357.17101422 81.64648073 357.1921059 77.44315294 357.22631836 73.23974609 C357.25919645 69.17429556 357.27691219 65.10902275 357.28463173 61.0434494 C357.29012469 59.50149493 357.30084923 57.95954887 357.31719017 56.4176712 C357.49908057 38.52427761 353.88783768 24.67204318 341.390625 11.3671875 C338.26140282 8.26864397 335.00790808 5.34688943 331.65234375 2.49609375 C330.83443359 1.75552734 330.83443359 1.75552734 330 1 C330 0.67 330 0.34 330 0 C435.93 0 541.86 0 651 0 C645.19404234 33.6745544 645.19404234 33.6745544 642.95703125 45.69140625 C642.83172216 46.36590254 642.70641308 47.04039883 642.57730675 47.7353344 C641.92222048 51.26120885 641.26503794 54.78668337 640.60571289 58.31176758 C639.93122196 61.920268 639.26440467 65.53014722 638.59901905 69.14033604 C638.0771728 71.96434394 637.5499645 74.7873312 637.02124596 77.61005974 C636.65298276 79.58361389 636.29039061 81.55822358 635.92793274 83.53285217 C635.70397324 84.72027512 635.48001373 85.90769806 635.24926758 87.13110352 C634.95878288 88.69200462 634.95878288 88.69200462 634.66242981 90.28443909 C634.05103125 92.79080279 633.2628598 94.76282836 632 97 C631.86464844 96.443125 631.72929688 95.88625 631.58984375 95.3125 C629.10995392 86.52151331 623.99755489 80.57245427 616.10546875 76.0234375 C612.51926071 74.28023434 608.82744774 73.09085413 605 72 C604.0775499 71.66263824 603.15509979 71.32527649 602.20469666 70.97769165 C596.39549675 69.33422202 590.34076095 69.6912253 584.35375977 69.68115234 C582.97342854 69.67184351 581.5931029 69.66167343 580.21278381 69.65071106 C576.48192415 69.62350452 572.75110205 69.60828952 569.0201695 69.59528303 C565.11504151 69.57961141 561.20998976 69.55283411 557.30491638 69.5272522 C549.91740749 69.4805356 542.52988415 69.44375712 535.14230341 69.41057932 C525.15430554 69.36514586 515.16640221 69.30429922 505.17848301 69.24433136 C489.45236949 69.1503162 473.72622853 69.07684154 458 69 C458 102.66 458 136.32 458 171 C480.73924618 170.93329344 480.73924618 170.93329344 503.47822475 170.8281765 C511.61544775 170.78398478 519.75256122 170.7454993 527.88989258 170.72900391 C534.33624423 170.71591749 540.78236475 170.6887771 547.22858614 170.64538693 C550.63570993 170.62292743 554.04255034 170.60707984 557.44975471 170.60811615 C580.44776828 171.60325112 580.44776828 171.60325112 601 163 C601.66 163.33 602.32 163.66 603 164 C597.27497988 182.17577527 590.01914018 198.74158836 576 212 C575.38511719 212.62132812 574.77023437 213.24265625 574.13671875 213.8828125 C565.55311607 222.03621075 555.10097242 224.16052053 543.71166992 224.11352539 C542.76940961 224.11364593 541.8271493 224.11376646 540.85633564 224.11389065 C537.81435578 224.11314586 534.77243762 224.10553735 531.73046875 224.09765625 C529.84916208 224.09618549 527.96785501 224.0951656 526.08654785 224.09460449 C519.12019232 224.08936716 512.15384555 224.07540593 505.1875 224.0625 C489.615625 224.041875 474.04375 224.02125 458 224 C458 262.28 458 300.56 458 340 C480.48839793 339.93832473 480.48839793 339.93832473 502.9765625 339.83984375 C512.1601533 339.79147235 521.34363635 339.74696322 530.52734375 339.72900391 C537.21873013 339.71589963 543.90989459 339.68871506 550.60115588 339.64538693 C554.13636366 339.62296676 557.67129977 339.60707741 561.20658493 339.60811615 C593.49846883 340.0617769 593.49846883 340.0617769 621 325 C622.52265928 322.72076939 623.75092694 320.45010486 625 318 C627 319 627 319 627.8210144 320.93096924 C628.22261276 322.20118927 628.22261276 322.20118927 628.63232422 323.49707031 C628.93959442 324.45607239 629.24686462 325.41507446 629.56344604 326.40313721 C629.89055573 327.45088318 630.21766541 328.49862915 630.5546875 329.578125 C630.89750763 330.65568054 631.24032776 331.73323608 631.59353638 332.84344482 C632.69449323 336.31008144 633.78478995 339.77997048 634.875 343.25 C635.60218104 345.54448758 636.33003763 347.83876117 637.05859375 350.1328125 C640.11498024 359.77106154 643.14038224 369.41784683 646.09619141 379.08740234 C648.12115624 385.61301834 650.25397024 392.1052509 652.37451172 398.6003418 C652.97622717 400.44495652 653.57411688 402.29081784 654.171875 404.13671875 C654.5234668 405.21655029 654.87505859 406.29638184 655.23730469 407.40893555 C656 410 656 410 656 412 C439.52 412 223.04 412 0 412 C0 276.04 0 140.08 0 0 Z " fill="#303C3A" transform="translate(0,453)"/>
<path d="M0 0 C2.20765276 1.39437756 2.20765276 1.39437756 5.59765625 -0.14453125 C7.08867043 -0.69314972 8.57685457 -1.2495052 10.0625 -1.8125 C20.82776827 -5.87216195 30.00157369 -7.30786033 41.5625 -7.1875 C42.74263672 -7.18685547 43.92277344 -7.18621094 45.13867188 -7.18554688 C51.18126236 -7.15511413 57.02655478 -6.92296743 63 -6 C60.76974244 -3.76974244 59.95023738 -3.59626945 56.94921875 -2.9921875 C56.11511475 -2.81405518 55.28101074 -2.63592285 54.42163086 -2.45239258 C53.51936768 -2.26185303 52.61710449 -2.07131348 51.6875 -1.875 C39.05080087 0.94475931 26.54925397 5.07826429 15 11 C16.33604522 14.93926736 17.97351377 17.29537299 20.875 20.25 C32.84132464 33.25021509 41.59416644 48.55607125 50 64 C50.47324707 64.8667334 50.94649414 65.7334668 51.43408203 66.62646484 C58.58809682 79.80517326 64.95217265 93.2816606 71 107 C75.08508352 107 78.24501049 102.72191074 81 100 C84.12783488 96.43154838 87.06270992 92.72572057 90 89 C90.69351563 88.16082031 91.38703125 87.32164062 92.1015625 86.45703125 C96.40196519 81.2351137 100.09211931 75.86858106 103.5546875 70.0546875 C104.03164063 69.37664062 104.50859375 68.69859375 105 68 C105.66 68 106.32 68 107 68 C108.33984375 69.9140625 108.33984375 69.9140625 109.9375 72.625 C116.1260443 82.59827388 123.54422739 91.58359334 131.4375 100.25 C131.93338623 100.79897949 132.42927246 101.34795898 132.94018555 101.91357422 C135.41458444 104.57584335 137.58064216 106.67429152 141 108 C141.27980713 107.11965088 141.55961426 106.23930176 141.84790039 105.33227539 C142.88654404 102.32815436 144.06293775 99.5475613 145.43359375 96.68359375 C145.91183594 95.68279785 146.39007813 94.68200195 146.8828125 93.65087891 C147.39585937 92.59046387 147.90890625 91.53004883 148.4375 90.4375 C148.97246094 89.33067871 149.50742187 88.22385742 150.05859375 87.08349609 C162.62172415 61.23500345 176.36454786 37.3490965 195.03125 15.3984375 C197.00517095 13.17450457 197.00517095 13.17450457 198 11 C197.2059375 10.74734375 196.411875 10.4946875 195.59375 10.234375 C192.88728317 9.30476248 190.24901766 8.32457103 187.59375 7.265625 C174.93424834 2.23830489 162.2070727 -1.68054463 149 -5 C149 -5.33 149 -5.66 149 -6 C168.62407186 -9.62052282 188.46124147 -7.50988169 206.66796875 0.4609375 C210.55912483 1.36040071 213.03878699 -0.44300571 216.359375 -2.3671875 C217.14828125 -2.86476563 217.9371875 -3.36234375 218.75 -3.875 C229.65678239 -10.50968959 239.43038 -13.3698049 252.1875 -13.25 C253.19965576 -13.24468262 254.21181152 -13.23936523 255.25463867 -13.23388672 C275.01603732 -12.98396268 275.01603732 -12.98396268 279 -9 C277.85144531 -8.90203125 276.70289063 -8.8040625 275.51953125 -8.703125 C257.12736809 -6.99569302 241.48745026 -1.94886381 227 10 C230.47501125 13.5320826 234.0569578 16.88037094 237.75 20.1875 C255.40225593 36.3204378 270.75986258 57.93946958 272.14794922 82.63183594 C272.24799138 85.54749264 272.29556147 88.45770136 272.3125 91.375 C272.31813965 92.30248047 272.3237793 93.22996094 272.32958984 94.18554688 C272.1765513 108.59710919 266.84355661 121.72394996 258 133 C256.8553125 134.546875 256.8553125 134.546875 255.6875 136.125 C242.86207371 149.84522347 226.85325513 156.73011556 208.25341797 157.47265625 C189.1296081 157.70471115 171.71274507 150.78473548 155 142 C154.846521 142.57903076 154.69304199 143.15806152 154.53491211 143.75463867 C152.52007558 150.93147648 149.70707335 157.56356705 146.5625 164.3125 C146.03897949 165.44171875 145.51545898 166.5709375 144.97607422 167.734375 C139.90094995 178.5055728 134.12797931 188.79928428 128 199 C127.1661377 200.3921875 127.1661377 200.3921875 126.31542969 201.8125 C124.87878158 204.20943838 123.44026604 206.6052344 122 209 C129.5467129 219.14909005 137.22769278 228.88013703 146 238 C146.63808594 238.70125 147.27617187 239.4025 147.93359375 240.125 C160.20627867 253.21586391 177.42978508 264.0459584 195 268 C195.75152344 268.20238281 196.50304687 268.40476562 197.27734375 268.61328125 C213.75540739 272.43994058 230.86800481 270.17271007 247 266 C235.49761929 277.91099104 221.83502852 284.88595267 205.18994141 285.35620117 C169.2374173 285.63320181 141.92895949 265.70928666 117.24511719 241.40649414 C116.46297852 240.63297607 115.68083984 239.85945801 114.875 239.0625 C114.10317383 238.30380615 113.33134766 237.5451123 112.53613281 236.76342773 C111.82038086 236.04872314 111.10462891 235.33401855 110.3671875 234.59765625 C109.71862793 233.95320557 109.07006836 233.30875488 108.40185547 232.64477539 C107 231 107 231 107 229 C103.92162129 232.05979695 100.87690643 235.1493264 97.84765625 238.2578125 C73.80841464 262.79823893 45.38195491 285.09751193 9.4375 285.5625 C-8.32759988 285.43344165 -21.88618345 278.94814397 -35 267 C-33 266 -33 266 -30.40234375 266.77734375 C-29.25894531 267.16019531 -28.11554688 267.54304688 -26.9375 267.9375 C-5.2551315 274.36947286 19.29853885 269.98097439 38.8984375 259.44140625 C55.92031441 249.03360175 69.84323536 235.41338812 81.80908203 219.55371094 C82.86137753 218.18085146 83.95699585 216.84143577 85.05859375 215.5078125 C85.61675781 214.82460938 86.17492187 214.14140625 86.75 213.4375 C87.21921875 212.87933594 87.6884375 212.32117188 88.171875 211.74609375 C89.41347035 209.12820167 88.89942142 207.72246395 88 205 C86.83931848 203.08185139 85.59691626 201.21259369 84.3125 199.375 C72.63116486 181.9232209 63.86512349 162.41312226 56 143 C53.02377184 144.17760209 50.06244483 145.38685836 47.109375 146.62109375 C25.31598685 155.71848227 3.06051774 162.1281216 -20 153 C-20.886875 152.649375 -21.77375 152.29875 -22.6875 151.9375 C-36.98152402 145.50518919 -47.42891356 133.6142711 -54.4375 119.875 C-54.7677417 119.23038818 -55.0979834 118.58577637 -55.43823242 117.92163086 C-62.75935358 102.77930672 -62.59995672 81.7139553 -57.40087891 65.92871094 C-49.33025987 44.01425041 -34.33930756 24.17137084 -15 11 C-28.63698813 -3.65657603 -48.85781611 -7.59303097 -68 -9 C-48.1999347 -22.20004354 -17.91187747 -11.11055588 0 0 Z " fill="#323E3C" transform="translate(222,130)"/>
<path d="M0 0 C36.60423231 0 70.98007545 2.12826967 99 28 C99.6909375 28.61101563 100.381875 29.22203125 101.09375 29.8515625 C126.46899445 53.5149849 135.69252766 91.06642647 137.15234375 124.48779297 C138.27784674 166.00197085 134.87960111 213.26873587 108 247 C107.2265625 247.98097656 106.453125 248.96195313 105.65625 249.97265625 C90.59101443 267.87585492 67.98039442 273.60392112 46 278 C30.82 278 15.64 278 0 278 C0 186.26 0 94.52 0 0 Z " fill="#FEFEFE" transform="translate(128,518)"/>
<path d="M0 0 C8.58 0 17.16 0 26 0 C24.35 4.95 22.7 9.9 21 15 C22.588125 14.34 24.17625 13.68 25.8125 13 C28.83635572 11.74333269 30.70342144 11 34 11 C34 18.26 34 25.52 34 33 C29.71 32.67 25.42 32.34 21 32 C19.49398735 36.74373004 19.49398735 36.74373004 21.4375 39.625 C27.07239991 44.84759016 33.04778721 45.43345555 40.43359375 45.23828125 C43.50664456 44.95295994 46.16884941 44.22428134 49 43 C49.33 40.69 49.66 38.38 50 36 C46.05272412 35.82057837 43.4019487 35.90649311 40 38 C38 36 38 36 37.625 32.125 C37.72838527 29.28190512 37.97169411 28.05146526 39.375 25.5 C43.4056044 23.19679749 47.45774281 23.51728626 52 24 C52.66 24.33 53.32 24.66 54 25 C53.91298828 23.78763672 53.91298828 23.78763672 53.82421875 22.55078125 C53.45366594 13.77397325 53.45366594 13.77397325 56.25 9.8125 C58.63620625 8.23977315 60.1880701 7.31243666 63 7 C66.56977967 11.35066897 67.52068424 14.24538191 67.2734375 19.875 C66.9377105 22.48407836 66.20526796 24.66479333 65 27 C66.2375 26.9175 67.475 26.835 68.75 26.75 C71.8510592 26.76099666 72.81412391 26.87918054 75.5 28.625 C77.49476086 31.78337137 77.66260372 33.31886821 77 37 C75.54717756 39.43985447 74.07444128 40.97380154 72 43 C71.01 43 70.02 43 69 43 C68.67 41.02 68.34 39.04 68 37 C65.62625139 36.66574265 65.62625139 36.66574265 63 37 C60.99034226 38.59616005 60.99034226 38.59616005 60 41 C59.68098409 43.57589864 59.68098409 43.57589864 61 46 C68.11485401 50.92566816 75.42490124 51.94191527 84 51 C86.70167998 49.93513818 88.61182358 48.69825879 91 47 C88.56612247 45.78306124 86.58161154 45.68040104 83.875 45.4375 C82.96492187 45.35371094 82.05484375 45.26992188 81.1171875 45.18359375 C80.41851562 45.12300781 79.71984375 45.06242187 79 45 C80.63958758 39.76727367 82.38952035 34.84803364 85 30 C91.75 33.75 91.75 33.75 94 36 C94.33 31.05 94.66 26.1 95 21 C99.46931186 21.89386237 101.94488562 22.87240511 105.8125 25.0625 C106.78832031 25.61035156 107.76414062 26.15820312 108.76953125 26.72265625 C109.50558594 27.14417969 110.24164063 27.56570312 111 28 C109.17915735 34.68369189 105.46949892 40.34386772 101.90039062 46.21679688 C98.70956832 51.75293731 97.37958649 56.11158844 97.27172852 62.52294922 C96.95743525 65.38801617 96.0551547 67.03541607 94.5 69.4375 C92.13179456 73.15705431 91.72247745 75.79018393 91.625 80.1875 C91.40945929 84.22632236 91.21907644 86.63954831 88.25 89.5 C58.12030765 110.49199877 -8.61954369 102.29607769 -42.5625 96.625 C-48.68953971 95.48396153 -54.44476751 93.86077841 -60 91 C-61.010625 90.484375 -62.02125 89.96875 -63.0625 89.4375 C-65.73407915 86.07648107 -65.3849325 83.33429447 -65.55859375 79.1328125 C-66.22572077 74.39798178 -68.36821133 70.60539781 -70.625 66.43359375 C-71.88282771 63.29259786 -72.14567009 61.65327634 -72.27734375 58.38671875 C-72.79261513 51.5299935 -76.18682301 46.22996768 -79.5625 40.375 C-80.17802734 39.27542969 -80.79355469 38.17585938 -81.42773438 37.04296875 C-82.93654659 34.35283845 -84.46064279 31.67273011 -86 29 C-83.26854078 26.10813375 -80.51936734 24.57514432 -76.9375 22.8125 C-75.87402344 22.28269531 -74.81054688 21.75289062 -73.71484375 21.20703125 C-71 20 -71 20 -69 20 C-69 25.28 -69 30.56 -69 36 C-67.72125 35.01 -66.4425 34.02 -65.125 33 C-61.25 30 -61.25 30 -59 30 C-57.99781939 32.3115773 -56.99816342 34.62418884 -56 36.9375 C-55.71382813 37.59685547 -55.42765625 38.25621094 -55.1328125 38.93554688 C-53 43.88671875 -53 43.88671875 -53 45 C-58.445 45.495 -58.445 45.495 -64 46 C-64 46.66 -64 47.32 -64 48 C-57.42972802 51.42796799 -51.45733434 52.28795497 -44.2421875 50.203125 C-38.4808172 48.06068313 -38.4808172 48.06068313 -34 44 C-34.24453124 40.65807308 -34.60543557 39.39456443 -37 37 C-39.55460214 36.92727438 -39.55460214 36.92727438 -42 38 C-43.37466625 40.47636012 -43.37466625 40.47636012 -44 43 C-46.87231652 41.71240983 -49.19225634 40.62122831 -51 38 C-51.49125459 34.14014247 -51.56021138 31.91034349 -49.5 28.5625 C-45.86353539 26.28970962 -43.24217465 26.71718836 -39 27 C-39.32097656 26.45214844 -39.64195312 25.90429688 -39.97265625 25.33984375 C-41.84631586 21.07245932 -41.69418174 16.55598887 -41 12 C-39.55288424 9.6402433 -38.2811991 8.65386935 -36 7 C-32.45089658 8.91843428 -30.08011467 10.51701729 -28 14 C-27.70703125 16.796875 -27.70703125 16.796875 -27.8125 19.75 C-27.85310547 21.22726563 -27.85310547 21.22726563 -27.89453125 22.734375 C-27.92933594 23.48203125 -27.96414063 24.2296875 -28 25 C-27.34 24.67 -26.68 24.34 -26 24 C-21.43173948 23.51452284 -17.39154176 23.17170134 -13.375 25.5625 C-11.49532183 28.89465675 -11.58913518 31.23373911 -12 35 C-12.66 35.99 -13.32 36.98 -14 38 C-15.0828125 37.4740625 -15.0828125 37.4740625 -16.1875 36.9375 C-19.3122705 35.89590983 -20.88161996 36.10903428 -24 37 C-24.05167527 39.42267086 -24.05167527 39.42267086 -23 42 C-17.41850197 45.51877049 -11.47311804 45.99447344 -5 45 C0.9717919 42.66157893 0.9717919 42.66157893 5 38 C5.039992 36.00039988 5.04346799 33.99952758 5 32 C3.58344207 31.9727585 2.16672955 31.95349533 0.75 31.9375 C-0.03890625 31.92589844 -0.8278125 31.91429688 -1.640625 31.90234375 C-4.30478142 31.93296498 -4.30478142 31.93296498 -8 33 C-8 25.74 -8 18.48 -8 11 C1 13.25 1 13.25 5 15 C4.6390625 14.08476562 4.278125 13.16953125 3.90625 12.2265625 C3.21015625 10.44378906 3.21015625 10.44378906 2.5 8.625 C1.80390625 6.84996094 1.80390625 6.84996094 1.09375 5.0390625 C0 2 0 2 0 0 Z " fill="#35403E" transform="translate(315,0)"/>
<path d="M0 0 C13.1716727 7.90300362 23.72022069 20.47627922 29 35 C30.97012203 43.16143358 31.29485391 51.1134612 31.28761292 59.47746277 C31.29426073 60.7945598 31.30090854 62.11165683 31.30775779 63.4686659 C31.3256847 67.09564284 31.33133491 70.72254699 31.33474457 74.34956276 C31.34053811 78.27270879 31.35766711 82.19580924 31.37309265 86.118927 C31.40771583 95.57536802 31.42341291 105.03180478 31.43721595 114.48829529 C31.44419393 118.95067344 31.453347 123.41304702 31.46232414 127.87542152 C31.4915081 142.72239444 31.51630397 157.56936294 31.52694798 172.41636181 C31.52798402 173.83930248 31.52798402 173.83930248 31.52904099 175.29098942 C31.529733 176.24178117 31.53042502 177.19257292 31.531138 178.17217654 C31.53254996 180.0985897 31.53397077 182.02500286 31.53540039 183.95141602 C31.53645815 185.38474265 31.53645815 185.38474265 31.53753727 186.84702537 C31.54978477 202.32619668 31.59258235 217.80512298 31.64834059 233.28419264 C31.70521859 249.20423988 31.73560487 265.12416341 31.73996013 281.04431325 C31.74303406 289.97177332 31.75739232 298.89889249 31.80124092 307.82625389 C31.83847648 315.42810956 31.85145207 323.02953188 31.83353604 330.6314657 C31.82512576 334.50414257 31.82768462 338.37593602 31.86135483 342.2484951 C32.07653578 368.47795058 27.01362761 383.76720357 9.37109375 403.7109375 C7 406 7 406 0 411 C0 275.37 0 139.74 0 0 Z " fill="#FCFDFC" transform="translate(0,454)"/>
<path d="M0 0 C2.63005739 1.69309945 4.22437512 3.56603145 5.875 6.20703125 C6.308125 6.82578125 6.74125 7.44453125 7.1875 8.08203125 C8.21862029 11.26913032 7.4971064 13.97207796 6.875 17.20703125 C6.215 17.20703125 5.555 17.20703125 4.875 17.20703125 C4.22395833 15.48177083 3.57291667 13.75651042 2.921875 12.03125 C1.14453844 8.93417473 -1.04717033 7.50853469 -4.45703125 6.5546875 C-9.57407403 5.96642904 -13.22402448 5.8631443 -17.54296875 8.8671875 C-27.36558995 17.18609879 -31.01249414 29.0951162 -34.125 41.20703125 C-29.71384382 41.11276923 -25.30317955 41.00652363 -20.89257812 40.88964844 C-19.39526052 40.8516029 -17.89785911 40.81670958 -16.40039062 40.78515625 C-14.23537433 40.73896924 -12.07092314 40.68107108 -9.90625 40.62109375 C-8.60751953 40.58967285 -7.30878906 40.55825195 -5.97070312 40.52587891 C-1.79086494 40.17932808 1.84125448 39.32533619 5.875 38.20703125 C4.3648214 42.05112223 2.31835653 43.96136395 -1.125 46.20703125 C-8.41459518 48.6541294 -15.49592342 48.43675986 -23.125 48.33203125 C-24.37667969 48.32300781 -25.62835938 48.31398438 -26.91796875 48.3046875 C-29.9871801 48.28125841 -33.05598756 48.24845272 -36.125 48.20703125 C-36.40085937 49.47675781 -36.67671875 50.74648438 -36.9609375 52.0546875 C-41.04108227 70.37961091 -46.44362931 88.32537066 -52.125 106.20703125 C-52.43614746 107.2017041 -52.74729492 108.19637695 -53.06787109 109.22119141 C-58.30367364 125.92589477 -63.96849868 143.24751679 -80.3046875 152.3125 C-86.95860673 155.58234443 -94.25374898 156.7065012 -101.47265625 154.484375 C-105.70404466 152.53081811 -108.82037157 150.35536243 -111.125 146.20703125 C-111.71515768 143.2108461 -111.99216467 140.25560212 -112.125 137.20703125 C-111.465 136.87703125 -110.805 136.54703125 -110.125 136.20703125 C-109.74408203 137.03847656 -109.74408203 137.03847656 -109.35546875 137.88671875 C-108.83919922 138.97339844 -108.83919922 138.97339844 -108.3125 140.08203125 C-107.97605469 140.80132813 -107.63960938 141.520625 -107.29296875 142.26171875 C-106.13032903 144.51245931 -106.13032903 144.51245931 -103.125 146.20703125 C-97.41339188 147.18081362 -92.37585686 146.87378955 -87.375 143.83203125 C-78.62280097 137.13917317 -74.28874156 127.11963851 -70.125 117.20703125 C-69.81780029 116.49844971 -69.51060059 115.78986816 -69.1940918 115.05981445 C-66.22965274 108.00426256 -64.23533999 100.79282252 -62.3125 93.39453125 C-61.96960167 92.09223231 -61.62649897 90.78998717 -61.28320312 89.48779297 C-57.68797847 75.7779026 -54.40167175 61.99635821 -51.125 48.20703125 C-64.49 48.70203125 -64.49 48.70203125 -78.125 49.20703125 C-76.475 52.17703125 -74.825 55.14703125 -73.125 58.20703125 C-70.2885765 72.38914873 -71.98046582 84.56557894 -79.375 97.01953125 C-85.56607146 106.20030816 -94.14172383 112.93462928 -105.125 115.20703125 C-111.44002162 115.8687155 -117.4909321 115.29137499 -123.125 112.20703125 C-128.36157871 107.70113794 -132.50037451 102.00944443 -133.40869141 95.02587891 C-133.5273438 92.64020851 -133.54165609 90.28273455 -133.5 87.89453125 C-133.48912354 87.05075928 -133.47824707 86.2069873 -133.46704102 85.33764648 C-133.12647162 72.02459606 -127.97664577 60.98009201 -118.75 51.26953125 C-111.60262643 44.54904859 -104.64194873 41.06952043 -94.78393555 41.09350586 C-93.7432341 41.09358139 -92.70253265 41.09365692 -91.6302948 41.09373474 C-90.5186647 41.09889603 -89.40703461 41.10405731 -88.26171875 41.109375 C-87.11459915 41.11078995 -85.96747955 41.1122049 -84.78559875 41.11366272 C-81.12787246 41.11925264 -77.47020775 41.13180336 -73.8125 41.14453125 C-71.33007901 41.14954755 -68.84765706 41.15411023 -66.36523438 41.15820312 C-60.2851353 41.16921878 -54.20507205 41.18594695 -48.125 41.20703125 C-47.97571045 40.27528076 -47.8264209 39.34353027 -47.67260742 38.38354492 C-45.17154626 23.87560609 -37.84926922 9.19339943 -25.7109375 0.47265625 C-17.25844744 -4.30367147 -8.64546627 -4.36904813 0 0 Z " fill="#FBFCFC" transform="translate(420.125,577.79296875)"/>
<path d="M0 0 C14.07812539 6.17553456 23.8588273 24.26120533 29.33544922 37.86132812 C35.33662677 54.00216258 34.44176371 70.39811946 27.63671875 85.9921875 C21.04890604 98.56434916 8.96244583 104.36887227 -4 108.609375 C-20.42438509 113.03842266 -37.94844845 109.18950508 -52.8984375 101.921875 C-53.8984375 99.921875 -53.8984375 99.921875 -53.03515625 97.03515625 C-52.56217504 95.76442715 -52.07807227 94.49780962 -51.5859375 93.234375 C-51.31668457 92.53304443 -51.04743164 91.83171387 -50.77001953 91.10913086 C-15.00465029 -0.61747532 -15.00465029 -0.61747532 0 0 Z " fill="#FDFDFD" transform="translate(437.8984375,153.078125)"/>
<path d="M0 0 C5.16575943 3.50809036 8.12760241 8.11704374 11.5 13.25 C12.11093506 14.17748047 12.72187012 15.10496094 13.35131836 16.06054688 C30.66895754 42.78339791 43.35579459 72.07129482 54 102 C34.35906293 110.97788396 16.82574519 114.34457835 -4 107 C-15.40743042 102.67852218 -23.68067348 95.27950354 -28.86425781 84.21826172 C-35.41433646 69.2414868 -34.60951249 52.14734827 -29 37 C-22.72613998 22.6549938 -12.49244144 9.46397079 0 0 Z " fill="#FDFDFD" transform="translate(218,152)"/>
<path d="M0 0 C0.33 0 0.66 0 1 0 C1.06990607 8.52843502 1.12301531 17.05674775 1.15543652 25.58539963 C1.17100714 29.54678308 1.19208529 33.50796866 1.22631836 37.46923828 C1.25922247 41.30127115 1.27691747 45.13311524 1.28463173 48.96527863 C1.29012014 50.41792009 1.30083537 51.87055273 1.31719017 53.32311249 C1.52511113 72.57805087 -3.73478206 88.28150909 -17.22631359 102.24768925 C-17.81163011 102.8259518 -18.39694662 103.40421434 -19 104 C-19.72519238 104.74420669 -20.45038477 105.48841337 -21.19755268 106.25517178 C-28.84722817 113.36606606 -34.85911123 114.26894918 -45.01831055 114.02172852 C-46.49774519 114.01918436 -47.97719117 114.02062557 -49.45661926 114.02571106 C-53.44032924 114.02827493 -57.42155954 113.97567487 -61.40469718 113.91254544 C-65.5792224 113.85596751 -69.75381568 113.85097229 -73.92866516 113.84031677 C-81.81951983 113.81243518 -89.70924123 113.73870734 -97.59959871 113.64817137 C-106.5886393 113.54728606 -115.57773639 113.49801864 -124.56720293 113.45291245 C-143.04544248 113.35904726 -161.52262986 113.2009264 -180 113 C-180 112.67 -180 112.34 -180 112 C-173.31180025 111.41895492 -166.64882721 110.99502024 -159.9375 110.8515625 C-110.93880763 109.74238992 -73.12767538 93.98052572 -38.44140625 59.453125 C-22.11543997 42.1888848 -9.52556906 21.68438982 0 0 Z " fill="#FDFDFD" transform="translate(357,752)"/>
<path d="M0 0 C0.66 0 1.32 0 2 0 C3.43151981 1.93088719 4.75456961 3.862735 6.0625 5.875 C12.3397772 15.23029968 19.95039016 23.14779203 28 31 C25.78121774 38.12811445 22.95928245 44.79764903 19.8125 51.5625 C19.0843811 53.1393457 19.0843811 53.1393457 18.34155273 54.74804688 C14.39387788 63.25333218 10.2613681 71.64809816 6 80 C4.66242068 82.66456627 3.33100504 85.33213934 2 88 C-1 87 -1 87 -2.45117188 84.72875977 C-2.95197266 83.72643311 -3.45277344 82.72410645 -3.96875 81.69140625 C-4.53529297 80.56347656 -5.10183594 79.43554688 -5.68554688 78.2734375 C-6.29142541 77.03697758 -6.89621903 75.79998554 -7.5 74.5625 C-7.80558838 73.94262207 -8.11117676 73.32274414 -8.42602539 72.68408203 C-13.00461991 63.38825634 -17.37016308 54.00390223 -21.5 44.5 C-21.98662109 43.40373291 -22.47324219 42.30746582 -22.97460938 41.17797852 C-23.40580078 40.16018311 -23.83699219 39.1423877 -24.28125 38.09375 C-24.66345703 37.20365234 -25.04566406 36.31355469 -25.43945312 35.39648438 C-26 33 -26 33 -25.21850586 30.79833984 C-23.72307557 28.59129927 -22.01611022 26.940833 -20.0625 25.125 C-16.09168417 21.2505632 -12.59684457 17.17512473 -9.1875 12.8125 C-8.73189697 12.23064941 -8.27629395 11.64879883 -7.80688477 11.04931641 C-5.67611114 8.29064501 -3.66908431 5.5177669 -1.80078125 2.57421875 C-0.90939453 1.29998047 -0.90939453 1.29998047 0 0 Z " fill="#FDFDFD" transform="translate(327,224)"/>
<path d="M0 0 C2.58455285 1.89533875 2.96275506 2.88826517 4 6 C5.06549986 23.66747443 0.2957244 41.2110026 -11.53515625 54.7578125 C-14.02541302 57.08205215 -16.33821704 58.11273901 -19.5625 59.1875 C-23 59 -23 59 -25.67578125 56.51171875 C-28.62801143 52.69760526 -28.77018822 49.32432636 -28.625 44.625 C-28.61098145 43.83988037 -28.59696289 43.05476074 -28.58251953 42.24584961 C-27.99733946 27.7604594 -22.18768337 12.44890602 -12 2 C-7.85538698 -1.38113168 -5.12810742 -1.32950933 0 0 Z " fill="#333F3D" transform="translate(330,627)"/>
<path d="M0 0 C0.78070862 -0.00133942 1.56141724 -0.00267883 2.36578369 -0.00405884 C14.88993347 0.00057394 26.94221443 0.79986542 39.25 3.25 C40.60133879 3.49343266 41.95289386 3.73566849 43.3046875 3.9765625 C50.06528161 5.27722648 56.134325 7.06273022 62.25 10.25 C62.25 11.57 62.25 12.89 62.25 14.25 C54.79892425 13.40248428 47.46143616 12.07641368 40.08984375 10.7109375 C26.5247366 8.27757156 13.11428585 8.04714243 -0.625 8.0625 C-1.53596436 8.06277191 -2.44692871 8.06304382 -3.38549805 8.06332397 C-21.55111464 8.08828113 -39.16415842 9.11265789 -57.0234375 12.56640625 C-60.92922998 13.28287762 -64.80677988 13.7909777 -68.75 14.25 C-68.45727539 12.38012695 -68.45727539 12.38012695 -67.75 10.25 C-61.48411292 6.31629233 -55.01525613 4.93930219 -47.8125 3.5625 C-46.29172852 3.24442383 -46.29172852 3.24442383 -44.74023438 2.91992188 C-30.03241335 0.02223433 -14.94344472 0.01539902 0 0 Z " fill="#F7F8F8" transform="translate(330.75,63.75)"/>
<path d="M0 0 C0.75 2.625 0.75 2.625 1 5 C-4.13333333 8.93953488 -4.13333333 8.93953488 -7.6875 9.1875 C-8.450625 8.795625 -9.21375 8.40375 -10 8 C-10.350625 6.865625 -10.70125 5.73125 -11.0625 4.5625 C-11.699853 2.60581112 -11.699853 2.60581112 -13 1 C-27.34230945 -4.63087149 -48.22214412 -2.20319876 -63.5 -2.1875 C-64.40922211 -2.18756042 -65.31844421 -2.18762085 -66.25521851 -2.18768311 C-77.63583896 -2.17695667 -88.96004116 -1.99118863 -100.3125 -1.125 C-101.86517578 -1.00741333 -101.86517578 -1.00741333 -103.44921875 -0.88745117 C-109.98810129 -0.39618754 -109.98810129 -0.39618754 -116 2 C-117.21526985 3.68046157 -117.21526985 3.68046157 -117.8125 5.625 C-118.204375 6.73875 -118.59625 7.8525 -119 9 C-123.21912747 8.5205537 -125.79663178 7.83374881 -129 5 C-128.8125 2.6875 -128.8125 2.6875 -128 0 C-104.79770845 -16.39248015 -23.79694028 -15.25297859 0 0 Z " fill="#F4F5F5" transform="translate(392,83)"/>
<path d="M0 0 C2.9375 1.5 2.9375 1.5 5 3 C4.79803569 6.63535761 4.21677989 7.7994786 1.5 10.3125 C-2.77417904 12.3732649 -6.32180992 12.76633209 -11 12 C-14 10 -14 10 -14.625 7.6875 C-13.77457157 4.03065773 -12.09585808 2.9293172 -9.00390625 0.94921875 C-5.8317678 -0.55337315 -3.43401135 -0.50874242 0 0 Z " fill="#F5F6F6" transform="translate(294,48)"/>
<path d="M0 0 C3 1.25 3 1.25 5 3 C6 5.5 6 5.5 6 8 C4.43893842 10.06654819 3.50399401 10.89344127 0.94921875 11.43359375 C-4.47005714 11.44295347 -7.84861023 10.84003554 -12 7 C-12.875 4.25 -12.875 4.25 -13 2 C-9.18861409 -2.14281077 -5.02950591 -1.16548265 0 0 Z " fill="#F8F9F9" transform="translate(370,49)"/>
<path d="M0 0 C0.70125 0.53625 1.4025 1.0725 2.125 1.625 C2.125 4.625 2.125 4.625 0.76953125 6.046875 C-4.11366688 9.58693334 -4.11366688 9.58693334 -7.375 9.75 C-10.89249997 8.16712502 -13.84379817 5.99230748 -16.875 3.625 C-11.34694279 -2.29791844 -7.61663796 -3.6427399 0 0 Z " fill="#F7F8F8" transform="translate(334.875,48.375)"/>
<path d="M0 0 C-0.11509661 1.41750563 -0.24253658 2.83401169 -0.375 4.25 C-0.44460938 5.03890625 -0.51421875 5.8278125 -0.5859375 6.640625 C-1.01507113 9.085877 -1.78600638 10.84836903 -3 13 C-4.13199353 12.0919838 -5.25532363 11.17316174 -6.375 10.25 C-7.00148438 9.73953125 -7.62796875 9.2290625 -8.2734375 8.703125 C-10.08312318 6.91800519 -11.00117455 5.32050356 -12 3 C-4.71428571 -0.42857143 -4.71428571 -0.42857143 0 0 Z " fill="#F2F3F3" transform="translate(408,56)"/>
<path d="M0 0 C1.44010481 0.25662245 2.8770687 0.53090821 4.3125 0.8125 C5.11300781 0.96332031 5.91351563 1.11414062 6.73828125 1.26953125 C9.23445587 2.07572236 10.32422106 3.02052002 12 5 C10.90536178 6.17561146 9.79892814 7.3402489 8.6875 8.5 C8.07261719 9.1496875 7.45773438 9.799375 6.82421875 10.46875 C5 12 5 12 2 12 C-0.60018816 8.09971775 -0.15085514 4.52565431 0 0 Z " fill="#F8F8F8" transform="translate(248,56)"/>
</svg>
